<?xml version="1.0" encoding="UTF-8"?>
<svg xmlns="http://www.w3.org/2000/svg" viewBox="632 22 120 48">
<path fill-rule="nonzero" fill="rgb(80.783081%, 94.900513%, 94.116211%)" fill-opacity="1" d="M 724.199219 59.101562 C 724.050781 58.800781 723.898438 58.574219 723.675781 58.351562 C 723.226562 57.898438 722.699219 57.601562 722.175781 57.375 C 721.648438 57.148438 721.125 57.148438 720.601562 57.148438 C 720.074219 57.148438 719.550781 57.226562 719.101562 57.375 C 718.648438 57.523438 718.199219 57.675781 717.75 57.898438 C 718.726562 57.898438 719.699219 57.898438 720.523438 58.125 C 721.351562 58.351562 722.101562 58.800781 722.398438 59.324219 C 722.550781 59.625 722.699219 59.925781 722.699219 60.300781 C 722.699219 60.675781 722.699219 60.976562 722.699219 61.351562 C 722.625 61.648438 722.476562 61.949219 722.25 62.25 C 722.023438 62.550781 721.800781 62.773438 721.5 63 C 721.199219 63.226562 720.898438 63.375 720.523438 63.449219 C 720.148438 63.601562 719.851562 63.601562 719.476562 63.675781 C 719.101562 63.675781 718.726562 63.675781 718.351562 63.523438 C 717.976562 63.449219 717.675781 63.300781 717.375 63.074219 C 716.773438 62.625 716.324219 61.949219 716.25 61.199219 C 716.25 60.449219 716.476562 59.550781 717.300781 58.949219 C 716.851562 59.023438 716.324219 59.324219 715.949219 59.699219 C 715.574219 60.074219 715.351562 60.601562 715.199219 61.125 C 715.125 61.648438 715.199219 62.25 715.351562 62.851562 C 715.5 63.375 715.800781 63.898438 716.25 64.351562 C 717.074219 65.25 718.273438 65.699219 719.398438 65.699219 C 720 65.699219 720.523438 65.699219 721.125 65.476562 C 721.648438 65.324219 722.25 65.101562 722.699219 64.726562 C 723.148438 64.425781 723.601562 63.976562 723.976562 63.449219 C 724.273438 62.925781 724.574219 62.324219 724.648438 61.726562 C 724.726562 61.125 724.648438 60.523438 724.574219 59.925781 C 724.5 59.625 724.351562 59.324219 724.273438 59.101562 Z M 724.199219 59.101562 "/>
<path fill-rule="nonzero" fill="rgb(80.783081%, 94.900513%, 94.116211%)" fill-opacity="1" d="M 729 63.75 L 728.925781 63.75 L 729.675781 63.375 C 730.125 63.074219 730.648438 62.851562 731.101562 62.550781 C 731.550781 62.25 732 61.949219 732.449219 61.648438 L 733.125 61.199219 C 733.351562 61.050781 733.574219 60.824219 733.875 60.601562 C 734.101562 60.375 734.398438 60.074219 734.550781 59.773438 C 734.773438 59.398438 734.925781 59.023438 734.925781 58.574219 C 734.925781 58.351562 734.925781 58.125 734.925781 57.898438 C 734.925781 57.675781 734.773438 57.449219 734.625 57.300781 C 734.324219 56.925781 734.023438 56.699219 733.648438 56.550781 C 732.976562 56.25 732.375 56.175781 731.851562 56.175781 C 731.25 56.175781 730.726562 56.175781 730.125 56.175781 C 729 56.25 727.875 56.550781 726.898438 57.074219 C 728.023438 57.074219 729.074219 57.074219 730.125 57.226562 C 730.648438 57.226562 731.175781 57.375 731.625 57.523438 C 731.851562 57.523438 732.148438 57.675781 732.300781 57.75 C 732.523438 57.824219 732.675781 57.898438 732.824219 58.050781 C 732.976562 58.125 733.050781 58.273438 733.050781 58.351562 C 733.050781 58.425781 733.050781 58.5 733.050781 58.574219 C 733.050781 58.648438 732.976562 58.800781 732.898438 58.875 C 732.824219 58.949219 732.675781 59.101562 732.523438 59.25 C 732.226562 59.476562 731.699219 59.773438 731.25 60.074219 C 730.800781 60.375 730.351562 60.675781 729.898438 60.898438 C 729.449219 61.199219 729 61.425781 728.550781 61.726562 L 727.875 62.101562 L 727.800781 62.101562 C 727.800781 62.175781 727.726562 62.175781 727.648438 62.25 C 727.648438 62.25 727.5 62.324219 727.425781 62.398438 C 727.273438 62.476562 727.125 62.625 726.976562 62.773438 C 726.824219 62.925781 726.675781 63.148438 726.601562 63.449219 C 726.601562 63.449219 726.601562 63.601562 726.601562 63.675781 C 726.601562 63.75 726.601562 63.824219 726.601562 63.898438 C 726.601562 64.050781 726.601562 64.273438 726.601562 64.425781 C 726.675781 64.726562 726.976562 65.101562 727.199219 65.25 C 727.425781 65.398438 727.726562 65.476562 727.875 65.550781 C 728.101562 65.550781 728.25 65.550781 728.398438 65.550781 L 728.851562 65.550781 C 728.851562 65.550781 729.675781 65.550781 729.675781 65.550781 C 731.851562 65.550781 734.101562 65.324219 736.199219 64.800781 C 734.023438 64.5 731.925781 64.273438 729.824219 63.898438 L 729.074219 63.75 Z M 728.324219 63.523438 C 728.324219 63.523438 728.25 63.523438 728.324219 63.523438 Z M 728.324219 63.523438 "/>
<path fill-rule="nonzero" fill="rgb(80.783081%, 94.900513%, 94.116211%)" fill-opacity="1" d="M 706.574219 63.75 L 706.5 63.75 L 707.25 63.375 C 707.699219 63.074219 708.226562 62.851562 708.675781 62.550781 C 709.125 62.25 709.574219 61.949219 710.023438 61.648438 L 710.699219 61.199219 C 710.925781 61.050781 711.148438 60.824219 711.449219 60.601562 C 711.675781 60.375 711.976562 60.074219 712.125 59.773438 C 712.351562 59.398438 712.5 59.023438 712.5 58.574219 C 712.5 58.351562 712.5 58.125 712.5 57.898438 C 712.5 57.675781 712.351562 57.449219 712.199219 57.300781 C 711.898438 56.925781 711.601562 56.699219 711.226562 56.550781 C 710.550781 56.25 709.949219 56.175781 709.425781 56.175781 C 708.824219 56.175781 708.300781 56.175781 707.699219 56.175781 C 706.574219 56.25 705.449219 56.550781 704.476562 57.074219 C 705.601562 57.074219 706.648438 57.074219 707.699219 57.226562 C 708.226562 57.226562 708.75 57.375 709.199219 57.523438 C 709.425781 57.523438 709.726562 57.675781 709.875 57.75 C 710.101562 57.824219 710.25 57.898438 710.398438 58.050781 C 710.550781 58.125 710.625 58.273438 710.625 58.351562 C 710.625 58.425781 710.625 58.5 710.625 58.574219 C 710.625 58.648438 710.550781 58.800781 710.476562 58.875 C 710.398438 58.949219 710.25 59.101562 710.101562 59.25 C 709.800781 59.476562 709.273438 59.773438 708.824219 60.074219 C 708.375 60.375 707.925781 60.675781 707.476562 60.898438 C 707.023438 61.199219 706.574219 61.425781 706.125 61.726562 L 705.449219 62.101562 L 705.375 62.101562 C 705.375 62.175781 705.300781 62.175781 705.226562 62.25 C 705.226562 62.25 705.074219 62.324219 705 62.398438 C 704.851562 62.476562 704.699219 62.625 704.550781 62.773438 C 704.398438 62.925781 704.25 63.148438 704.175781 63.449219 C 704.175781 63.449219 704.175781 63.601562 704.175781 63.675781 C 704.175781 63.75 704.175781 63.824219 704.175781 63.898438 C 704.175781 64.050781 704.175781 64.273438 704.175781 64.425781 C 704.25 64.726562 704.550781 65.101562 704.773438 65.25 C 705 65.398438 705.300781 65.476562 705.449219 65.550781 C 705.675781 65.550781 705.824219 65.550781 705.976562 65.550781 L 706.425781 65.550781 C 706.425781 65.550781 707.25 65.550781 707.25 65.550781 C 709.425781 65.550781 711.675781 65.324219 713.773438 64.800781 C 711.601562 64.5 709.5 64.273438 707.398438 63.898438 L 706.648438 63.75 Z M 705.898438 63.523438 C 705.898438 63.523438 705.824219 63.523438 705.898438 63.523438 Z M 705.898438 63.523438 "/>
<path fill-rule="nonzero" fill="rgb(100%, 100%, 100%)" fill-opacity="1" d="M 638.699219 27.449219 L 648.675781 27.449219 L 648.675781 31.125 L 642.675781 31.125 L 642.675781 37.875 L 648.375 37.875 L 648.375 41.550781 L 642.675781 41.550781 L 642.675781 53.023438 L 638.773438 53.023438 L 638.773438 27.523438 Z M 638.699219 27.449219 "/>
<path fill-rule="nonzero" fill="rgb(100%, 100%, 100%)" fill-opacity="1" d="M 654.75 27.449219 L 658.648438 27.449219 L 658.648438 49.425781 L 665.101562 49.425781 L 664.800781 52.949219 L 654.75 52.949219 Z M 654.75 27.449219 "/>
<path fill-rule="nonzero" fill="rgb(100%, 100%, 100%)" fill-opacity="1" d="M 681.148438 34.199219 L 681.148438 46.125 C 681.148438 51 679.050781 53.324219 674.773438 53.324219 C 670.5 53.324219 668.773438 50.925781 668.773438 46.199219 L 668.773438 34.199219 C 668.773438 29.324219 671.25 27.074219 675.074219 27.074219 C 678.898438 27.074219 681.226562 29.324219 681.226562 34.199219 Z M 672.75 33.824219 L 672.75 46.648438 C 672.75 48.75 673.5 49.800781 674.925781 49.800781 C 676.351562 49.800781 677.175781 48.898438 677.175781 46.648438 L 677.175781 33.824219 C 677.175781 31.800781 676.574219 30.675781 674.925781 30.675781 C 673.273438 30.675781 672.75 31.726562 672.75 33.824219 Z M 672.75 33.824219 "/>
<path fill-rule="nonzero" fill="rgb(100%, 100%, 100%)" fill-opacity="1" d="M 687.898438 27.449219 L 691.800781 27.449219 L 691.800781 49.425781 L 698.25 49.425781 L 697.949219 52.949219 L 687.898438 52.949219 Z M 687.898438 27.449219 "/>
<path fill-rule="nonzero" fill="rgb(100%, 100%, 100%)" fill-opacity="1" d="M 734.324219 45.375 L 734.324219 46.351562 C 734.324219 49.273438 733.875 53.324219 728.476562 53.324219 C 723.074219 53.324219 722.773438 50.398438 722.773438 46.5 L 722.773438 33.601562 C 722.773438 29.625 724.574219 27.074219 728.550781 27.074219 C 732.523438 27.074219 734.25 30.226562 734.25 33.75 L 734.25 34.875 L 730.273438 34.875 L 730.273438 33.300781 C 730.273438 31.574219 729.898438 30.675781 728.476562 30.675781 C 727.050781 30.675781 726.675781 31.574219 726.675781 33.375 L 726.675781 46.875 C 726.675781 48.523438 726.976562 49.800781 728.476562 49.800781 C 729.976562 49.800781 730.273438 48.675781 730.273438 46.800781 L 730.273438 45.375 Z M 734.324219 45.375 "/>
<path fill-rule="nonzero" fill="rgb(100%, 100%, 100%)" fill-opacity="1" d="M 716.550781 29.699219 L 713.101562 35.851562 C 713.101562 35.851562 705.75 34.273438 705.75 34.273438 C 705.75 34.273438 705.226562 27.300781 705.226562 27.300781 L 701.398438 26.476562 L 704.101562 56.324219 C 704.101562 56.699219 704.398438 56.925781 704.699219 57 C 705.074219 57.074219 705.375 57 705.523438 56.625 L 720.449219 30.523438 L 716.625 29.699219 Z M 710.699219 40.125 L 706.800781 47.101562 L 706.125 39.074219 C 706.125 39.074219 710.699219 40.050781 710.699219 40.050781 Z M 710.699219 40.125 "/>
<path fill-rule="nonzero" fill="rgb(80.783081%, 94.900513%, 94.116211%)" fill-opacity="1" d="M 743.847656 59.769531 C 743.1875 59.5 742.441406 59.429688 741.761719 59.566406 C 740.996094 59.710938 740.304688 60.085938 739.78125 60.59375 C 739.875 60.007812 740.007812 59.441406 740.226562 58.925781 C 740.609375 57.964844 741.257812 57.28125 742.210938 56.90625 C 743.15625 56.542969 744.359375 56.570312 745.476562 57.105469 C 744.722656 56.101562 743.347656 55.515625 741.9375 55.667969 C 741.230469 55.738281 740.527344 56.027344 739.945312 56.480469 C 739.359375 56.9375 738.921875 57.527344 738.597656 58.140625 C 737.945312 59.382812 737.695312 60.699219 737.601562 61.992188 C 737.582031 62.316406 737.5625 62.679688 737.613281 63.089844 C 737.664062 63.496094 737.8125 63.941406 738.027344 64.320312 C 738.441406 65.046875 739.125 65.621094 739.882812 65.917969 C 740.636719 66.222656 741.410156 66.28125 742.132812 66.210938 C 742.492188 66.175781 742.839844 66.121094 743.230469 65.992188 C 743.601562 65.871094 743.949219 65.695312 744.273438 65.484375 C 744.921875 65.054688 745.464844 64.417969 745.738281 63.632812 C 745.863281 63.242188 745.929688 62.835938 745.90625 62.417969 C 745.886719 61.996094 745.757812 61.578125 745.5625 61.21875 C 745.15625 60.492188 744.503906 60.03125 743.84375 59.765625 Z M 744.117188 63 C 743.945312 63.347656 743.636719 63.640625 743.261719 63.847656 C 742.566406 64.25 741.40625 64.285156 740.683594 63.980469 C 740.324219 63.828125 740.039062 63.582031 739.839844 63.265625 C 739.761719 63.121094 739.707031 62.984375 739.679688 62.796875 C 739.648438 62.609375 739.636719 62.367188 739.648438 62.085938 C 739.65625 61.792969 739.679688 61.503906 739.707031 61.21875 C 740.363281 60.753906 741.132812 60.519531 741.859375 60.539062 C 742.386719 60.554688 742.863281 60.707031 743.296875 60.949219 C 743.71875 61.195312 744.050781 61.546875 744.191406 61.902344 C 744.324219 62.253906 744.300781 62.640625 744.117188 62.996094 Z M 744.117188 63 "/>
</svg>
